<svg xmlns="http://www.w3.org/2000/svg" width="231.169" height="44.275" viewBox="0 0 231.169 44.275">
  <g id="Group_4" data-name="Group 4" transform="translate(-819.973 -447.053)">
    <g id="Group_2" data-name="Group 2" transform="translate(819.973 447.053)">
      <g id="Group_1" data-name="Group 1" transform="translate(0 0)">
        <path id="Path_1" data-name="Path 1" d="M819.973,447.063l.044-.006-.018,0Z" transform="translate(-819.973 -447.053)" fill="#4bbb17"/>
        <path id="Path_2" data-name="Path 2" d="M882.853,459.879l5.887-3.342-5.887-3.342-5.887-3.342v2.828q-17.061,0-34.122-.012a1.842,1.842,0,0,0-1.433.576c-3.977,3.956-7.985,7.879-11.96,11.836a62.024,62.024,0,0,0-5.775,5.988c-3.388,4.435-4.107,9.427-1.694,14.531a12.943,12.943,0,0,0,12.265,7.787c10.51.118,21.022.064,31.533.022a13.421,13.421,0,0,0,13.471-12.443c.262-3.631.057-7.294.133-10.94.018-.862-.248-1.028-1.05-1.026-9.222.026-16.932.013-26.039.036v-2.682l-5.887,3.342-5.887,3.342,5.887,3.342,5.887,3.342v-2.918c6.806.076,10.445.3,18.878.3,0,.291.013.477,0,.662a8.259,8.259,0,0,1-8.272,7.573q-14.051.023-28.1,0a5.865,5.865,0,0,1-5.57-3.683,5.678,5.678,0,0,1,1.441-6.358c4.486-4.447,9.008-8.859,13.453-13.347a3.875,3.875,0,0,1,3.054-1.248c9.93.046,19.861.025,29.792.04v2.472Z" transform="translate(-820.42 -449.183)" fill="#4bbb17"/>
      </g>
    </g>
    <g id="Group_3" data-name="Group 3" transform="translate(898.057 459.002)">
      <path id="Path_3" data-name="Path 3" d="M1167.679,502.691h-10.944a3.446,3.446,0,0,0-3.113,2.1,9.73,9.73,0,0,0-1.012,4.653,10.43,10.43,0,0,0,1.051,4.87,3.451,3.451,0,0,0,3.073,2.218l2.122.1h2.657a1.509,1.509,0,0,0,1.308-.684,2.693,2.693,0,0,0,.476-1.576,2.5,2.5,0,0,0-.456-1.517,1.542,1.542,0,0,0-1.328-.625h-2.657v-5.234h3.529a5.819,5.819,0,0,1,4.857,2.3,8.885,8.885,0,0,1,0,10.191,5.818,5.818,0,0,1-4.857,2.3h-6.543a7.716,7.716,0,0,1-6.741-3.7,14.448,14.448,0,0,1-2.221-8.2,15.182,15.182,0,0,1,2.26-8.439,7.645,7.645,0,0,1,6.7-3.863h11.837Z" transform="translate(-1146.881 -497.457)" fill="#fff"/>
      <path id="Path_4" data-name="Path 4" d="M1263.816,521.406h-5.73l-6.325-18.638a.366.366,0,0,0-.416-.3.526.526,0,0,0-.5.3l-6.186,18.638h-5.809q.495-1.725,2.131-6.86t3.183-9.715a50.545,50.545,0,0,1,2.1-5.67,4.444,4.444,0,0,1,2.082-1.547,8.5,8.5,0,0,1,5.938,0,4.447,4.447,0,0,1,2.072,1.547,39.57,39.57,0,0,1,2.141,5.631q1.051,3.093,3.133,9.715Q1262.9,518.531,1263.816,521.406Z" transform="translate(-1216.886 -497.078)" fill="#fff"/>
      <path id="Path_5" data-name="Path 5" d="M1368.893,502.691h-12.888a1.642,1.642,0,0,0-1.378.661,2.478,2.478,0,0,0-.506,1.549,2.306,2.306,0,0,0,.486,1.48,1.68,1.68,0,0,0,1.4.612h7.594a5.82,5.82,0,0,1,4.858,2.3,8.889,8.889,0,0,1,0,10.191,5.819,5.819,0,0,1-4.858,2.3H1349.78V516.63h12.947a1.509,1.509,0,0,0,1.309-.684,2.693,2.693,0,0,0,.476-1.576,2.5,2.5,0,0,0-.456-1.517,1.542,1.542,0,0,0-1.329-.625h-7.614a5.916,5.916,0,0,1-4.9-2.277,8.623,8.623,0,0,1,0-10.078,5.93,5.93,0,0,1,4.9-2.3h13.78Z" transform="translate(-1300.41 -497.457)" fill="#fff"/>
      <path id="Path_6" data-name="Path 6" d="M1448.24,582.439h-5.353v-5.175h5.353Z" transform="translate(-1372.184 -558.111)" fill="#fff"/>
      <path id="Path_7" data-name="Path 7" d="M1503.736,517.054a4.611,4.611,0,0,1-2,4.045,7.621,7.621,0,0,1-4.421,1.19,6.2,6.2,0,0,1-4.065-1.348,9.438,9.438,0,0,1-2.617-3.906l-3.846-13.046a1.65,1.65,0,0,0-.485-.674.988.988,0,0,0-.6-.218.874.874,0,0,0-.7.357,1.474,1.474,0,0,0-.287.952v12.63a4.616,4.616,0,0,1-2.022,4.064,7.658,7.658,0,0,1-4.441,1.19,5.576,5.576,0,0,1-3.886-1.547,10.229,10.229,0,0,1-2.736-4.937l-5.155-17.8h5.492l5.472,17.8a1.218,1.218,0,0,0,.4.952.921.921,0,0,0,.575.278.758.758,0,0,0,.714-.337,1.75,1.75,0,0,0,.2-.892V503.036a4.7,4.7,0,0,1,1.965-3.866,6.957,6.957,0,0,1,4.386-1.428,6.638,6.638,0,0,1,3.85,1.13,6.379,6.379,0,0,1,2.521,3.708l4.326,13.225a2.719,2.719,0,0,0,.6,1.091.65.65,0,0,0,.536.139,1.49,1.49,0,0,0,.734-.357,1.563,1.563,0,0,0,.159-.873V498h5.353Z" transform="translate(-1390.127 -497.583)" fill="#fff"/>
      <path id="Path_8" data-name="Path 8" d="M1643.963,502.691h-5.473v19.094H1633.2V502.691h-5.453v-5.115h16.219Z" transform="translate(-1512.886 -497.457)" fill="#fff"/>
      <path id="Path_9" data-name="Path 9" d="M1722.771,512.228h-15.049v9.557h-5.353v-12.3a21.691,21.691,0,0,1,.674-5.8,8.8,8.8,0,0,1,2.577-4.379,7.835,7.835,0,0,1,5.294-1.723h11.856v5.115h-11.856a2.848,2.848,0,0,0-2.8,2.151,9.393,9.393,0,0,0-.4,2.151h15.049v5.234Z" transform="translate(-1569.687 -497.457)" fill="#fff"/>
    </g>
  </g>
</svg>
