<svg xmlns="http://www.w3.org/2000/svg" width="20.355" height="13.191" viewBox="0 0 20.355 13.191">
  <g id="Group_13" data-name="Group 13" transform="translate(0)">
    <g id="Group_1" data-name="Group 1" transform="translate(0 0)">
      <path id="Path_1" data-name="Path 1" d="M819.973,447.056l.013,0h-.005Z" transform="translate(-819.973 -447.053)" fill="#fff"/>
      <path id="Path_2" data-name="Path 2" d="M839.12,452.839l1.754-1-1.754-1-1.754-1v.843q-5.083,0-10.166,0a.549.549,0,0,0-.427.172c-1.185,1.179-2.379,2.348-3.563,3.526a18.478,18.478,0,0,0-1.721,1.784,3.966,3.966,0,0,0-.5,4.329,3.856,3.856,0,0,0,3.654,2.32c3.131.035,6.263.019,9.395.007a4,4,0,0,0,4.014-3.707c.078-1.082.017-2.173.04-3.26.005-.257-.074-.306-.313-.306-2.747.008-5.045,0-7.758.011v-.8l-1.754,1-1.754,1,1.754,1,1.754,1v-.869c2.028.023,3.112.09,5.624.09,0,.087,0,.142,0,.2a2.461,2.461,0,0,1-2.464,2.256q-4.186.007-8.373,0a1.748,1.748,0,0,1-1.659-1.1,1.692,1.692,0,0,1,.429-1.894c1.337-1.325,2.684-2.639,4.008-3.977a1.154,1.154,0,0,1,.91-.372c2.959.014,5.917.008,8.876.012v.736Z" transform="translate(-820.519 -449.653)" fill="#fff"/>
    </g>
  </g>
</svg>
